<svg width="54" height="19" viewBox="0 0 54 19" fill="none" xmlns="http://www.w3.org/2000/svg">
<g clip-path="url(#clip0_984_3830)">
<path d="M6.7634 2.46008H0.954508V15.5968L6.7634 2.46008Z" fill="#868686"/>
<path d="M10.8506 2.46008H16.652V15.5968L10.8506 2.46008Z" fill="#868686"/>
<path d="M8.80688 7.30161L12.5041 15.5966H10.0784L8.97338 12.9557H6.26761L8.80688 7.30161Z" fill="#868686"/>
<path d="M26.1283 10.8141L26.8133 12.6713C26.836 12.7179 26.87 12.7393 26.9306 12.7393H28.2475C28.3194 12.7393 28.3308 12.7071 28.3194 12.6391L25.5985 5.49286C25.5872 5.4356 25.5758 5.42487 25.5153 5.42487H23.8805C23.8351 5.42487 23.8086 5.45707 23.8086 5.50359C23.7858 5.87934 23.7518 5.99385 23.7026 6.10478L21.2769 12.6284C21.2655 12.7071 21.292 12.7393 21.3601 12.7393H22.537C22.6089 12.7393 22.643 12.7179 22.6695 12.6499L23.3166 10.8141H26.1283ZM23.6912 9.60099C24.047 8.58469 24.5162 7.28211 24.7054 6.53778H24.7168C24.9514 7.3179 25.5039 8.86381 25.7537 9.60099H23.6912Z" fill="#868686"/>
<path d="M31.8175 12.8502C32.5252 12.8502 33.2783 12.7285 34.0427 12.4172C34.1033 12.3957 34.1146 12.3707 34.1146 12.317C34.0919 12.1166 34.0654 11.8267 34.0654 11.6049V4.87728C34.0654 4.83434 34.0654 4.81287 34.0087 4.81287H32.7258C32.6766 4.81287 32.6539 4.83434 32.6539 4.89159V7.1711C32.4533 7.14963 32.3133 7.1389 32.1468 7.1389C30.0768 7.1389 28.8052 8.43074 28.8052 10.0446C28.8052 11.9162 30.1108 12.8502 31.8175 12.8502ZM32.6539 11.6049C32.442 11.6693 32.2073 11.6943 31.9689 11.6943C31.0304 11.6943 30.2622 11.1933 30.2622 9.97665C30.2622 8.89952 31.0531 8.26255 32.1014 8.26255C32.3133 8.26255 32.4987 8.28402 32.6539 8.34128V11.6049Z" fill="#868686"/>
<path d="M38.2073 7.13892C36.44 7.13892 35.3464 8.42002 35.3464 10.0017C35.3464 11.4152 36.2168 12.8502 38.1808 12.8502C39.8421 12.8502 41.0077 11.6944 41.0077 9.96594C41.0077 8.44149 40.02 7.13892 38.2073 7.13892ZM38.1354 8.26257C39.1345 8.26257 39.5583 9.07489 39.5583 10.0017C39.5583 11.1468 38.9339 11.7158 38.2073 11.7158C37.3104 11.7158 36.7806 11.0037 36.7806 9.97667C36.7806 8.92101 37.3445 8.26257 38.1354 8.26257Z" fill="#868686"/>
<path d="M42.334 4.81287C42.2848 4.81287 42.2507 4.83434 42.2507 4.89159V12.5067C42.2507 12.5389 42.2848 12.5961 42.334 12.6069C42.8978 12.7715 43.4882 12.8502 44.0974 12.8502C45.842 12.8502 47.5374 11.8267 47.5374 9.76552C47.5374 8.27328 46.455 7.1389 44.7597 7.1389C44.3699 7.1389 44.0066 7.19615 43.6887 7.29635L43.6736 4.90233C43.6736 4.8236 43.6509 4.81287 43.5676 4.81287H42.334ZM46.088 9.90151C46.088 11.1361 45.1949 11.7158 44.2299 11.7158C44.0293 11.7158 43.8515 11.7051 43.6887 11.6586V8.40927C43.8742 8.34128 44.0974 8.28402 44.5099 8.28402C45.4409 8.28402 46.088 8.84227 46.088 9.90151Z" fill="#868686"/>
<path d="M52.3247 10.3023C52.8999 10.3023 53.3729 10.2916 53.5357 10.2558C53.5962 10.2451 53.6189 10.2236 53.6303 10.1771C53.6643 10.0554 53.6795 9.80133 53.6795 9.49C53.6795 8.43076 53.0059 7.13892 51.2651 7.13892C49.4865 7.13892 48.4988 8.50948 48.4988 10.0554C48.4988 11.426 49.2632 12.8502 51.4051 12.8502C52.2074 12.8502 52.7258 12.7285 53.1724 12.5282C53.2178 12.5067 53.2405 12.4709 53.2405 12.4065V11.4796C53.2405 11.426 53.2064 11.4152 53.1724 11.4367C52.7258 11.6156 52.2414 11.7051 51.7116 11.7051C50.512 11.7051 49.9671 11.0789 49.933 10.3023H52.3247ZM49.933 9.34328C50.0276 8.79934 50.3909 8.20889 51.2045 8.20889C52.1014 8.20889 52.336 8.92101 52.336 9.24308C52.336 9.25381 52.336 9.30034 52.336 9.33254C52.2869 9.34328 52.1355 9.34328 51.6889 9.34328H49.933Z" fill="#868686"/>
</g>
<defs>
<clipPath id="clip0_984_3830">
<rect width="52.7901" height="18.0161" fill="white" transform="translate(0.954508 0.207886)"/>
</clipPath>
</defs>
</svg>
