<svg width="191" height="73" viewBox="0 0 191 73" fill="none" xmlns="http://www.w3.org/2000/svg">
<g clip-path="url(#clip0_854_1682)">
<path fill-rule="evenodd" clip-rule="evenodd" d="M184.018 48.6254C184.132 49.9245 185.171 51.578 186.972 51.578H188.024C188.434 51.578 188.768 51.2434 188.768 50.8348V27.6698H188.763C188.743 27.2795 188.42 26.967 188.024 26.967H184.761C184.366 26.967 184.043 27.2795 184.023 27.6698H184.018V29.5521C182.018 27.0872 178.865 26.0641 175.704 26.0641C168.518 26.0641 162.692 31.8942 162.692 39.0864C162.692 46.2792 168.518 52.1094 175.704 52.1094C178.865 52.1094 182.312 50.8825 184.018 48.6225V48.6254ZM175.716 47.5518C171.146 47.5518 167.441 43.762 167.441 39.0864C167.441 34.4117 171.146 30.6219 175.716 30.6219C180.288 30.6219 183.992 34.4117 183.992 39.0864C183.992 43.762 180.288 47.5518 175.716 47.5518Z" fill="#353535"/>
<path fill-rule="evenodd" clip-rule="evenodd" d="M158.565 37.4352C158.565 30.6782 154.306 26.1199 147.513 26.1199C144.271 26.1199 141.613 27.9963 140.674 29.6081C140.471 28.3478 139.803 27.023 137.729 27.023H136.673C136.264 27.023 135.93 27.3579 135.93 27.7665V48.6834C135.93 48.684 135.93 48.6856 135.93 48.6866V50.9335H135.934C135.955 51.3231 136.278 51.636 136.673 51.636H139.937C139.987 51.636 140.036 51.63 140.083 51.6209C140.105 51.6166 140.125 51.6081 140.146 51.6022C140.17 51.5947 140.195 51.589 140.218 51.5794C140.247 51.5674 140.274 51.5513 140.301 51.5362C140.314 51.528 140.328 51.5224 140.341 51.5139C140.373 51.4929 140.403 51.4676 140.432 51.4418C140.437 51.437 140.442 51.4338 140.447 51.4294C140.479 51.398 140.509 51.3633 140.535 51.3273C140.617 51.2151 140.667 51.0793 140.675 50.9335H140.679V37.2493C140.679 33.6204 143.619 30.6782 147.246 30.6782C150.872 30.6782 153.812 33.6204 153.812 37.2493L153.815 48.6874L153.816 48.6834C153.816 48.6935 153.817 48.7039 153.817 48.7148V50.9335H153.822C153.843 51.3231 154.166 51.636 154.56 51.636H157.824C157.874 51.636 157.923 51.63 157.97 51.6209C157.99 51.6173 158.007 51.6095 158.026 51.6042C158.053 51.5964 158.081 51.5898 158.106 51.5794C158.133 51.5684 158.157 51.553 158.182 51.5387C158.198 51.53 158.214 51.5238 158.229 51.5139C158.259 51.4941 158.286 51.4701 158.314 51.4465C158.32 51.4401 158.328 51.4353 158.335 51.4289C158.366 51.399 158.393 51.3667 158.418 51.3329C158.42 51.3304 158.422 51.3284 158.424 51.3258C158.505 51.2146 158.554 51.0803 158.562 50.9353C158.562 50.9343 158.563 50.9335 158.563 50.9335H158.567L158.565 37.4352Z" fill="#353535"/>
<path fill-rule="evenodd" clip-rule="evenodd" d="M124.575 48.6253C124.689 49.9244 125.728 51.5779 127.528 51.5779H128.581C128.99 51.5779 129.324 51.2433 129.324 50.8347V27.6698H129.32C129.299 27.2795 128.976 26.967 128.581 26.967H125.318C124.923 26.967 124.601 27.2795 124.579 27.6698H124.575V29.5521C122.575 27.0872 119.422 26.0641 116.261 26.0641C109.074 26.0641 103.249 31.8942 103.249 39.0865C103.249 46.2791 109.074 52.1095 116.261 52.1095C119.422 52.1095 122.868 50.8826 124.574 48.6224L124.575 48.6253ZM116.273 47.5517C111.703 47.5517 107.998 43.7621 107.998 39.0865C107.998 34.4117 111.703 30.6219 116.273 30.6219C120.844 30.6219 124.549 34.4117 124.549 39.0865C124.549 43.7621 120.844 47.5517 116.273 47.5517Z" fill="#353535"/>
<path fill-rule="evenodd" clip-rule="evenodd" d="M83.948 45.3077C86.1268 46.8183 88.5051 47.552 90.7905 47.552C92.9678 47.552 95.2188 46.4224 95.2188 44.4561C95.2188 41.8312 90.314 41.4227 87.2323 40.3745C84.15 39.3264 81.4953 37.1595 81.4953 33.6506C81.4953 28.2813 86.2758 26.0637 90.7377 26.0637C93.5647 26.0637 96.4815 26.9967 98.3725 28.3331C99.0238 28.827 98.6272 29.394 98.6272 29.394L96.822 31.9741C96.6192 32.2647 96.2644 32.5158 95.7552 32.2013C95.2459 31.8869 93.4598 30.6217 90.7377 30.6217C88.0153 30.6217 86.3755 31.8798 86.3755 33.4393C86.3755 35.3093 88.5068 35.8974 91.0031 36.5348C95.3534 37.7083 100.099 39.1189 100.099 44.4561C100.099 49.1869 95.6773 52.1105 90.7905 52.1105C87.0873 52.1105 83.9344 51.054 81.2901 49.112C80.7392 48.5603 81.1239 48.0479 81.1239 48.0479L82.9202 45.4808C83.2857 45.0009 83.7465 45.1683 83.948 45.3077Z" fill="#353535"/>
<path fill-rule="evenodd" clip-rule="evenodd" d="M71.4006 48.6253C71.5147 49.9244 72.5539 51.5779 74.3539 51.5779H75.4073C75.8156 51.5779 76.1502 51.2433 76.1502 50.8347V27.6698H76.1457C76.1243 27.2795 75.8019 26.967 75.4073 26.967H72.1435C71.7488 26.967 71.4264 27.2795 71.4045 27.6698H71.4006V29.5521C69.4009 27.0872 66.2482 26.0641 63.0866 26.0641C55.9002 26.0641 50.0745 31.8942 50.0745 39.0865C50.0745 46.2791 55.9002 52.1095 63.0866 52.1095C66.2482 52.1095 69.6936 50.8826 71.4001 48.6224L71.4006 48.6253ZM63.0993 47.5517C58.5288 47.5517 54.8236 43.7621 54.8236 39.0865C54.8236 34.4117 58.5288 30.6219 63.0993 30.6219C67.6696 30.6219 71.3745 34.4117 71.3745 39.0865C71.3745 43.7621 67.6696 47.5517 63.0993 47.5517Z" fill="#353535"/>
<path fill-rule="evenodd" clip-rule="evenodd" d="M31.832 39.9715C26.996 39.9715 23.0754 43.892 23.0754 48.7285C23.0754 53.5647 26.996 57.4852 31.832 57.4852C36.6682 57.4852 40.5887 53.5647 40.5887 48.7285C40.5887 43.892 36.6682 39.9715 31.832 39.9715ZM9.08165 39.9724C4.24553 39.9724 0.325012 43.892 0.325012 48.7285C0.325012 53.5647 4.24553 57.4852 9.08165 57.4852C13.918 57.4852 17.8387 53.5647 17.8387 48.7285C17.8387 43.892 13.918 39.9724 9.08165 39.9724ZM29.2134 29.0255C29.2134 33.862 25.2931 37.7829 20.4569 37.7829C15.6206 37.7829 11.7003 33.862 11.7003 29.0255C11.7003 24.19 15.6206 20.269 20.4569 20.269C25.2931 20.269 29.2134 24.19 29.2134 29.0255Z" fill="#353535"/>
</g>
<defs>
<clipPath id="clip0_854_1682">
<rect width="189.733" height="71.7103" fill="white" transform="translate(0.325073 0.847534)"/>
</clipPath>
</defs>
</svg>
