<svg width="13" height="14" viewBox="0 0 13 14" fill="none" xmlns="http://www.w3.org/2000/svg"><path d="M4.507 2.472h-2.51a.47.47 0 0 0-.47.47v2.51c0 .259.212.47.47.47h2.51a.47.47 0 0 0 .47-.47v-2.51a.47.47 0 0 0-.47-.47m5.606 0h-2.51a.47.47 0 0 0-.47.47v2.51c0 .259.211.47.47.47h2.51a.47.47 0 0 0 .47-.47v-2.51a.47.47 0 0 0-.47-.47M4.507 8.078h-2.51a.47.47 0 0 0-.47.47v2.51c0 .26.212.47.47.47h2.51a.47.47 0 0 0 .47-.47v-2.51a.47.47 0 0 0-.47-.47m5.606 0h-2.51a.47.47 0 0 0-.47.47v2.51c0 .26.211.47.47.47h2.51a.47.47 0 0 0 .47-.47v-2.51a.47.47 0 0 0-.47-.47" fill="#E2E3E5"/></svg>