<svg width="21" height="14" viewBox="0 0 21 14" fill="none" xmlns="http://www.w3.org/2000/svg">
<path d="M14.3811 5.8075C15.9239 5.8075 17.16 4.56211 17.16 3.01932C17.16 1.47653 15.9239 0.23114 14.3811 0.23114C12.8383 0.23114 11.5929 1.47653 11.5929 3.01932C11.5929 4.56211 12.8383 5.8075 14.3811 5.8075ZM6.94594 5.8075C8.48873 5.8075 9.72482 4.56211 9.72482 3.01932C9.72482 1.47653 8.48873 0.23114 6.94594 0.23114C5.40314 0.23114 4.15776 1.47653 4.15776 3.01932C4.15776 4.56211 5.40314 5.8075 6.94594 5.8075ZM6.94594 7.66629C4.78045 7.66629 0.440186 8.75368 0.440186 10.9192V12.3133C0.440186 12.8244 0.858412 13.2426 1.36958 13.2426H12.5223C13.0335 13.2426 13.4517 12.8244 13.4517 12.3133V10.9192C13.4517 8.75368 9.11142 7.66629 6.94594 7.66629ZM14.3811 7.66629C14.1116 7.66629 13.8049 7.68487 13.4796 7.71276C13.4982 7.72205 13.5075 7.74064 13.5167 7.74993C14.5763 8.52133 15.3105 9.55295 15.3105 10.9192V12.3133C15.3105 12.6385 15.2454 12.9545 15.1432 13.2426H19.9574C20.4686 13.2426 20.8868 12.8244 20.8868 12.3133V10.9192C20.8868 8.75368 16.5466 7.66629 14.3811 7.66629Z" fill="#B2B3B6"/>
</svg>
