<svg width="9" height="9" viewBox="0 0 9 9" fill="none" xmlns="http://www.w3.org/2000/svg">
<path fill-rule="evenodd" clip-rule="evenodd" d="M6.92218 2.08554C7.01898 2.18233 7.01898 2.33927 6.92218 2.43607L2.46061 6.89765C2.36381 6.99444 2.20687 6.99444 2.11007 6.89765C2.01328 6.80085 2.01328 6.64391 2.11007 6.54711L6.57165 2.08554C6.66845 1.98874 6.82539 1.98874 6.92218 2.08554Z" fill="black"/>
<path fill-rule="evenodd" clip-rule="evenodd" d="M2.11007 2.08554C2.20687 1.98874 2.36381 1.98874 2.46061 2.08554L6.92218 6.54711C7.01898 6.64391 7.01898 6.80085 6.92218 6.89765C6.82539 6.99444 6.66845 6.99444 6.57165 6.89765L2.11007 2.43607C2.01328 2.33927 2.01328 2.18233 2.11007 2.08554Z" fill="black"/>
</svg>
