<svg width="13" height="13" viewBox="0 0 13 13" fill="none" xmlns="http://www.w3.org/2000/svg"><path d="M9.25 2.29a5.07 5.07 0 0 0-2.651-.727 5.07 5.07 0 0 0-2.651.727 5.3 5.3 0 0 0-1.922 1.97 5.4 5.4 0 0 0-.708 2.717q0 1.77 1.007 3.183t2.603 1.955q.185.035.275-.05a.28.28 0 0 0 .089-.21l-.003-.382-.004-.628-.158.028a2 2 0 0 1-.382.025 3 3 0 0 1-.478-.05q-.245-.045-.459-.21a.9.9 0 0 1-.302-.434l-.07-.163a1.7 1.7 0 0 0-.215-.358.8.8 0 0 0-.3-.27l-.048-.034a.6.6 0 0 1-.09-.085.4.4 0 0 1-.06-.098q-.021-.05.033-.082a.4.4 0 0 1 .2-.031l.137.02a1 1 0 0 1 .34.17q.204.14.334.367.158.288.381.44.225.152.451.152t.392-.036a1.4 1.4 0 0 0 .309-.105q.063-.474.337-.727a4.6 4.6 0 0 1-.704-.127 2.7 2.7 0 0 1-.646-.275 1.8 1.8 0 0 1-.554-.473 2.3 2.3 0 0 1-.36-.738 3.6 3.6 0 0 1-.141-1.058q0-.852.542-1.452-.255-.641.049-1.439.199-.063.59.095.393.159.574.271.183.114.293.19.638-.18 1.319-.18t1.32.184l.261-.17q.27-.168.633-.31.366-.141.559-.077.309.796.054 1.438.543.6.543 1.452 0 .6-.14 1.061a2.2 2.2 0 0 1-.366.741 1.9 1.9 0 0 1-.556.47 2.8 2.8 0 0 1-.646.273 4.5 4.5 0 0 1-.705.127q.357.315.357 1.001v1.488q0 .126.086.21.086.086.272.05 1.595-.543 2.602-1.957a5.35 5.35 0 0 0 1.008-3.182q0-1.473-.709-2.717a5.33 5.33 0 0 0-1.921-1.97z" fill="#58595B"/></svg>