<svg width="202" height="51" viewBox="0 0 202 51" fill="none" xmlns="http://www.w3.org/2000/svg">
<path fill-rule="evenodd" clip-rule="evenodd" d="M26.9359 0.161133C12.5489 0.161133 0.896118 11.8139 0.896118 26.2009C0.896118 37.7235 8.35001 47.4559 18.7008 50.9062C20.0028 51.134 20.4911 50.3528 20.4911 49.6693C20.4911 49.0508 20.4585 47.0002 20.4585 44.8194C13.916 46.0237 12.2234 43.2244 11.7026 41.7597C11.4097 41.0111 10.1402 38.7 9.03355 38.0816C8.12216 37.5933 6.82017 36.389 9.001 36.3564C11.0516 36.3239 12.5164 38.2443 13.0046 39.0255C15.3482 42.964 19.0914 41.8573 20.5887 41.1738C20.8166 39.4812 21.5001 38.342 22.2487 37.691C16.4549 37.04 10.4006 34.7941 10.4006 24.8338C10.4006 22.002 11.4097 19.6584 13.0697 17.8356C12.8093 17.1846 11.8979 14.5156 13.3301 10.9351C13.3301 10.9351 15.5109 10.2516 20.4911 13.6042C22.5742 13.0183 24.7876 12.7253 27.001 12.7253C29.2144 12.7253 31.4278 13.0183 33.511 13.6042C38.4911 10.219 40.6719 10.9351 40.6719 10.9351C42.1041 14.5156 41.1927 17.1846 40.9323 17.8356C42.5923 19.6584 43.6014 21.9695 43.6014 24.8338C43.6014 34.8266 37.5146 37.04 31.7207 37.691C32.6647 38.5047 33.4784 40.0671 33.4784 42.5083C33.4784 45.9912 33.4459 48.7904 33.4459 49.6693C33.4459 50.3528 33.9341 51.1666 35.2361 50.9062C40.4055 49.161 44.8974 45.8388 48.0797 41.4069C51.262 36.9751 52.9743 31.6569 52.9757 26.2009C52.9757 11.8139 41.3229 0.161133 26.9359 0.161133Z" fill="#353535"/>
<path d="M122.289 38.7697H122.229C122.256 38.7697 122.274 38.8001 122.301 38.8031H122.32L122.289 38.7727V38.7697ZM122.301 38.8031C122.019 38.8061 121.308 38.955 120.558 38.955C118.188 38.955 117.368 37.8613 117.368 36.4335V26.9216H122.198C122.472 26.9216 122.684 26.6785 122.684 26.3444V21.1798C122.684 20.9064 122.441 20.6633 122.198 20.6633H117.368V14.2532C117.368 14.0102 117.216 13.8583 116.942 13.8583H110.38C110.107 13.8583 109.955 14.0102 109.955 14.2532V20.8456C109.955 20.8456 106.644 21.6659 106.431 21.6963C106.188 21.757 106.036 21.9697 106.036 22.2127V26.3444C106.036 26.6785 106.279 26.9216 106.553 26.9216H109.925V36.8861C109.925 44.2988 115.089 45.0583 118.613 45.0583C120.223 45.0583 122.168 44.5418 122.472 44.3899C122.654 44.3292 122.745 44.1165 122.745 43.9039V39.3469C122.749 39.2176 122.707 39.0912 122.625 38.9908C122.544 38.8903 122.429 38.8226 122.301 38.8V38.8031ZM194.289 32.1165C194.289 26.6178 192.072 25.8887 189.732 26.1317C187.91 26.2532 186.451 27.1646 186.451 27.1646V37.8583C186.451 37.8583 187.94 38.8912 190.158 38.952C193.287 39.0431 194.289 37.919 194.289 32.1165ZM201.672 31.6304C201.672 42.0507 198.299 45.0279 192.406 45.0279C187.423 45.0279 184.75 42.5064 184.75 42.5064C184.75 42.5064 184.629 43.9039 184.477 44.0861C184.385 44.2684 184.234 44.3292 184.051 44.3292H179.555C179.251 44.3292 178.978 44.0861 178.978 43.8127L179.039 10.0608C179.039 9.78739 179.282 9.54435 179.555 9.54435H186.026C186.299 9.54435 186.542 9.78739 186.542 10.0608V21.514C186.542 21.514 189.034 19.9038 192.679 19.9038L192.649 19.8431C196.294 19.8431 201.672 21.2102 201.672 31.6304ZM175.18 20.6633H168.801C168.466 20.6633 168.284 20.9064 168.284 21.2406V37.7671C168.284 37.7671 166.613 38.952 164.335 38.952C162.056 38.952 161.388 37.919 161.388 35.6406V21.2102C161.388 20.9368 161.145 20.6937 160.872 20.6937H154.37C154.097 20.6937 153.854 20.9368 153.854 21.2102V36.7342C153.854 43.4178 157.591 45.0887 162.725 45.0887C166.948 45.0887 170.38 42.7494 170.38 42.7494C170.38 42.7494 170.532 43.9342 170.623 44.1165C170.684 44.2684 170.897 44.3899 171.11 44.3899H175.18C175.515 44.3899 175.697 44.1469 175.697 43.8735L175.758 21.1798C175.758 20.9064 175.515 20.6633 175.18 20.6633ZM103.18 20.633H96.7095C96.4361 20.633 96.1931 20.9064 96.1931 21.2406V43.5393C96.1931 44.1469 96.588 44.3595 97.1045 44.3595H102.937C103.545 44.3595 103.697 44.0861 103.697 43.5393V21.1494C103.697 20.876 103.454 20.633 103.18 20.633ZM99.9905 10.3646C97.6513 10.3646 95.7981 12.2178 95.7981 14.557C95.7981 16.8962 97.6513 18.7494 99.9905 18.7494C102.269 18.7494 104.122 16.8962 104.122 14.557C104.122 12.2178 102.269 10.3646 99.9905 10.3646ZM150.087 9.60511H143.677C143.403 9.60511 143.16 9.84815 143.16 10.1216V22.5469H133.104V10.1216C133.104 9.84815 132.861 9.60511 132.588 9.60511H126.117C125.844 9.60511 125.601 9.84815 125.601 10.1216V43.8735C125.601 44.1469 125.874 44.3899 126.117 44.3899H132.588C132.861 44.3899 133.104 44.1469 133.104 43.8735V29.4431H143.16L143.099 43.8735C143.099 44.1469 143.342 44.3899 143.616 44.3899H150.087C150.36 44.3899 150.603 44.1469 150.603 43.8735V10.1216C150.603 9.84815 150.36 9.60511 150.087 9.60511ZM92.7602 24.5519V41.9899C92.7602 42.1114 92.7298 42.3241 92.5779 42.3849C92.5779 42.3849 88.7804 45.0887 82.5222 45.0887C74.9576 45.0887 65.9956 42.719 65.9956 27.1038C65.9956 11.4887 73.8336 8.2684 81.4893 8.29878C88.112 8.29878 90.7855 9.78739 91.2108 10.0608C91.3323 10.2127 91.3931 10.3342 91.3931 10.4861L90.1171 15.8937C90.1171 16.1671 89.8437 16.5013 89.5095 16.4102C88.4158 16.076 86.7753 15.4076 82.9171 15.4076C78.4513 15.4076 73.6513 16.6836 73.6513 26.7393C73.6513 36.795 78.2082 37.9798 81.4893 37.9798C84.2842 37.9798 85.2867 37.6456 85.2867 37.6456V30.6583H80.8209C80.4867 30.6583 80.2437 30.4152 80.2437 30.1418V24.5519C80.2437 24.2785 80.4867 24.0355 80.8209 24.0355H92.1829C92.5171 24.0355 92.7602 24.2785 92.7602 24.5519Z" fill="#353535"/>
</svg>
