<svg width="169" height="73" viewBox="0 0 169 73" fill="none" xmlns="http://www.w3.org/2000/svg">
<g clip-path="url(#clip0_854_1675)">
<path d="M72.0653 39.1678C72.0653 47.1205 65.8438 52.9808 58.2087 52.9808C50.5736 52.9808 44.3522 47.1205 44.3522 39.1678C44.3522 31.159 50.5736 25.3549 58.2087 25.3549C65.8438 25.3549 72.0653 31.159 72.0653 39.1678ZM65.9995 39.1678C65.9995 34.1981 62.3937 30.7978 58.2087 30.7978C54.0237 30.7978 50.4179 34.1981 50.4179 39.1678C50.4179 44.0877 54.0237 47.5378 58.2087 47.5378C62.3937 47.5378 65.9995 44.0814 65.9995 39.1678Z" fill="#353535"/>
<path d="M101.958 39.1678C101.958 47.1205 95.7369 52.9808 88.1017 52.9808C80.4666 52.9808 74.2452 47.1205 74.2452 39.1678C74.2452 31.1653 80.4666 25.3549 88.1017 25.3549C95.7369 25.3549 101.958 31.159 101.958 39.1678ZM95.8925 39.1678C95.8925 34.1981 92.2867 30.7978 88.1017 30.7978C83.9168 30.7978 80.3109 34.1981 80.3109 39.1678C80.3109 44.0877 83.9168 47.5378 88.1017 47.5378C92.2867 47.5378 95.8925 44.0814 95.8925 39.1678Z" fill="#353535"/>
<path d="M130.606 26.1894V50.9879C130.606 61.1888 124.59 65.3551 117.478 65.3551C110.783 65.3551 106.754 60.8774 105.234 57.2156L110.516 55.0172C111.456 57.2654 113.76 59.9184 117.472 59.9184C122.024 59.9184 124.845 57.1097 124.845 51.8224V49.8358H124.634C123.276 51.511 120.66 52.9745 117.36 52.9745C110.453 52.9745 104.126 46.9586 104.126 39.2176C104.126 31.4206 110.453 25.3549 117.36 25.3549C120.654 25.3549 123.27 26.8184 124.634 28.4438H124.845V26.1956H130.606V26.1894ZM125.275 39.2176C125.275 34.3538 122.03 30.7978 117.902 30.7978C113.717 30.7978 110.21 34.3538 110.21 39.2176C110.21 44.0316 113.717 47.5378 117.902 47.5378C122.03 47.5378 125.275 44.0316 125.275 39.2176Z" fill="#353535"/>
<path d="M140.102 11.6541V52.1338H134.186V11.6541H140.102Z" fill="#353535"/>
<path d="M163.158 43.7141L167.866 46.8529C166.346 49.101 162.685 52.9747 156.357 52.9747C148.51 52.9747 142.65 46.9089 142.65 39.1617C142.65 30.9474 148.56 25.3488 155.679 25.3488C162.847 25.3488 166.353 31.0533 167.499 34.136L168.128 35.7054L149.663 43.3529C151.076 46.1242 153.275 47.5379 156.357 47.5379C159.446 47.5379 161.589 46.0184 163.158 43.7141ZM148.666 38.7445L161.009 33.6191C160.331 31.894 158.288 30.6921 155.884 30.6921C152.801 30.6921 148.51 33.4136 148.666 38.7445Z" fill="#353535"/>
<path d="M21.9575 35.574V29.7138H41.7054C41.8985 30.7352 41.9981 31.9433 41.9981 33.2511C41.9981 37.6479 40.7962 43.0846 36.9226 46.9582C33.1548 50.8816 28.3408 52.9741 21.9637 52.9741C10.1436 52.9741 0.204267 43.3462 0.204267 31.5261C0.204267 19.706 10.1436 10.078 21.9637 10.078C28.5028 10.078 33.161 12.6438 36.661 15.9881L32.5258 20.1232C30.0161 17.7692 26.6158 15.9382 21.9575 15.9382C13.3259 15.9382 6.57516 22.8945 6.57516 31.5261C6.57516 40.1576 13.3259 47.1139 21.9575 47.1139C27.5561 47.1139 30.7447 44.8657 32.7874 42.823C34.4439 41.1665 35.5338 38.8 35.9635 35.5678L21.9575 35.574Z" fill="#353535"/>
</g>
<defs>
<clipPath id="clip0_854_1675">
<rect width="168.818" height="71.7103" fill="white" transform="translate(0 0.847534)"/>
</clipPath>
</defs>
</svg>
