<svg width="51" height="51" viewBox="0 0 51 51" fill="none" xmlns="http://www.w3.org/2000/svg">
<g filter="url(#filter0_d_891_6310)">
<rect width="27.6316" height="27.6316" rx="13.8158" transform="matrix(1 0 0 -1 12 33.6316)" fill="white"/>
</g>
<path d="M25.8147 15.7318C27.1455 15.7318 27.303 15.7377 27.8264 15.761C28.3128 15.7824 28.5754 15.8641 28.7505 15.9322C28.982 16.0217 29.1493 16.1307 29.3225 16.3038C29.4976 16.4789 29.6046 16.6443 29.6941 16.8758C29.7622 17.0509 29.8439 17.3155 29.8653 17.7999C29.8886 18.3252 29.8945 18.4828 29.8945 19.8116C29.8945 21.1423 29.8886 21.2999 29.8653 21.8232C29.8439 22.3096 29.7622 22.5722 29.6941 22.7473C29.6046 22.9789 29.4956 23.1462 29.3225 23.3193C29.1474 23.4944 28.982 23.6014 28.7505 23.6909C28.5754 23.759 28.3108 23.8407 27.8264 23.8621C27.3011 23.8855 27.1435 23.8913 25.8147 23.8913C24.484 23.8913 24.3264 23.8855 23.8031 23.8621C23.3167 23.8407 23.0541 23.759 22.879 23.6909C22.6474 23.6014 22.4801 23.4925 22.307 23.3193C22.1319 23.1442 22.0249 22.9789 21.9354 22.7473C21.8673 22.5722 21.7856 22.3077 21.7642 21.8232C21.7408 21.2979 21.735 21.1404 21.735 19.8116C21.735 18.4808 21.7408 18.3233 21.7642 17.7999C21.7856 17.3135 21.8673 17.0509 21.9354 16.8758C22.0249 16.6443 22.1338 16.477 22.307 16.3038C22.4821 16.1287 22.6474 16.0217 22.879 15.9322C23.0541 15.8641 23.3186 15.7824 23.8031 15.761C24.3264 15.7377 24.484 15.7318 25.8147 15.7318ZM25.8147 14.835C24.4626 14.835 24.2933 14.8408 23.7622 14.8641C23.233 14.8875 22.8692 14.9731 22.5541 15.0957C22.2253 15.2241 21.9471 15.3933 21.6708 15.6715C21.3926 15.9478 21.2233 16.226 21.0949 16.5528C20.9724 16.87 20.8868 17.2318 20.8634 17.761C20.8401 18.2941 20.8342 18.4633 20.8342 19.8155C20.8342 21.1676 20.8401 21.3368 20.8634 21.868C20.8868 22.3971 20.9724 22.761 21.0949 23.0761C21.2233 23.4049 21.3926 23.6831 21.6708 23.9594C21.9471 24.2357 22.2253 24.4069 22.5521 24.5333C22.8692 24.6559 23.2311 24.7415 23.7603 24.7648C24.2914 24.7882 24.4607 24.794 25.8128 24.794C27.1649 24.794 27.3342 24.7882 27.8653 24.7648C28.3945 24.7415 28.7583 24.6559 29.0735 24.5333C29.4003 24.4069 29.6785 24.2357 29.9548 23.9594C30.231 23.6831 30.4022 23.4049 30.5287 23.0781C30.6513 22.761 30.7369 22.3991 30.7602 21.8699C30.7836 21.3388 30.7894 21.1695 30.7894 19.8174C30.7894 18.4653 30.7836 18.296 30.7602 17.7649C30.7369 17.2357 30.6513 16.8719 30.5287 16.5567C30.4061 16.226 30.2369 15.9478 29.9587 15.6715C29.6824 15.3953 29.4042 15.2241 29.0773 15.0976C28.7602 14.975 28.3984 14.8894 27.8692 14.8661C27.3361 14.8408 27.1669 14.835 25.8147 14.835Z" fill="#ED267C"/>
<path d="M25.8147 17.2571C24.4023 17.2571 23.2564 18.403 23.2564 19.8155C23.2564 21.2279 24.4023 22.3738 25.8147 22.3738C27.2272 22.3738 28.3731 21.2279 28.3731 19.8155C28.3731 18.403 27.2272 17.2571 25.8147 17.2571ZM25.8147 21.475C24.8984 21.475 24.1552 20.7318 24.1552 19.8155C24.1552 18.8991 24.8984 18.1559 25.8147 18.1559C26.7311 18.1559 27.4742 18.8991 27.4742 19.8155C27.4742 20.7318 26.7311 21.475 25.8147 21.475Z" fill="#ED267C"/>
<path d="M29.0715 17.1559C29.0715 17.4867 28.803 17.7532 28.4742 17.7532C28.1435 17.7532 27.877 17.4847 27.877 17.1559C27.877 16.8252 28.1454 16.5587 28.4742 16.5587C28.803 16.5587 29.0715 16.8271 29.0715 17.1559Z" fill="#ED267C"/>
<defs>
<filter id="filter0_d_891_6310" x="0.836822" y="0.363147" width="49.9579" height="49.9579" filterUnits="userSpaceOnUse" color-interpolation-filters="sRGB">
<feFlood flood-opacity="0" result="BackgroundImageFix"/>
<feColorMatrix in="SourceAlpha" type="matrix" values="0 0 0 0 0 0 0 0 0 0 0 0 0 0 0 0 0 0 127 0" result="hardAlpha"/>
<feOffset dy="5.52633"/>
<feGaussianBlur stdDeviation="5.58159"/>
<feComposite in2="hardAlpha" operator="out"/>
<feColorMatrix type="matrix" values="0 0 0 0 0 0 0 0 0 0 0 0 0 0 0 0 0 0 0.12 0"/>
<feBlend mode="normal" in2="BackgroundImageFix" result="effect1_dropShadow_891_6310"/>
<feBlend mode="normal" in="SourceGraphic" in2="effect1_dropShadow_891_6310" result="shape"/>
</filter>
</defs>
</svg>
