<svg width="10" height="10" viewBox="0 0 10 10" fill="none" xmlns="http://www.w3.org/2000/svg">
<path d="M4.9917 9.01969L0.977288 5.00528C0.657072 4.68507 0.443595 4.31279 0.336857 3.88843C0.232722 3.46408 0.234024 3.04234 0.340762 2.62319C0.447501 2.20145 0.659676 1.83437 0.977288 1.52196C1.30271 1.20175 1.67369 0.989574 2.09023 0.885439C2.50938 0.778701 2.92722 0.778701 3.34376 0.885439C3.7629 0.992177 4.13518 1.20435 4.46061 1.52196L4.9917 2.03743L5.52279 1.52196C5.85081 1.20435 6.22309 0.992177 6.63963 0.885439C7.05617 0.778701 7.47271 0.778701 7.88926 0.885439C8.3084 0.989574 8.68068 1.20175 9.0061 1.52196C9.32372 1.83437 9.53589 2.20145 9.64263 2.62319C9.74937 3.04234 9.74937 3.46408 9.64263 3.88843C9.53849 4.31279 9.32632 4.68507 9.0061 5.00528L4.9917 9.01969Z" fill="#0F1011"/>
</svg>
