<svg width="174" height="65" viewBox="0 0 174 65" fill="none" xmlns="http://www.w3.org/2000/svg">
<g clip-path="url(#clip0_854_1726)">
<path d="M47.1836 46.823V27.2251H47.5328L61.7981 46.823H66.2872V18.0433H61.2993V37.5918H60.9502L46.6848 18.0433H42.1957V46.823H47.1836ZM80.4029 47.2673C86.9869 47.2673 91.0271 43.0219 91.0271 35.9134C91.0271 28.8542 86.9869 24.5594 80.4029 24.5594C73.8688 24.5594 69.7787 28.8542 69.7787 35.9134C69.8286 43.0219 73.8189 47.2673 80.4029 47.2673ZM80.4029 43.1206C76.9114 43.1206 74.9162 40.5043 74.9162 35.9134C74.9162 31.3718 76.9114 28.7061 80.4029 28.7061C83.8944 28.7061 85.8896 31.3718 85.8896 35.9134C85.8896 40.5043 83.8944 43.1206 80.4029 43.1206ZM95.5661 19.6723V25.1518H92.0746V29.101H95.5661V40.998C95.5661 45.2433 97.5612 46.9217 102.649 46.9217C103.597 46.9217 104.544 46.823 105.292 46.6749V42.8245C104.694 42.8738 104.295 42.9232 103.597 42.9232C101.502 42.9232 100.554 41.9852 100.554 39.8132V29.101H105.292V25.1518H100.554V19.6723H95.5661ZM108.285 46.823H113.273V25.0037H108.285V46.823ZM110.779 21.4001C112.425 21.4001 113.772 20.0672 113.772 18.4382C113.772 16.7598 112.425 15.4269 110.779 15.4269C109.133 15.4269 107.786 16.7598 107.786 18.4382C107.786 20.0672 109.133 21.4001 110.779 21.4001ZM126.94 47.2673C133.524 47.2673 137.564 43.0219 137.564 35.9134C137.564 28.8542 133.524 24.5594 126.94 24.5594C120.406 24.5594 116.316 28.8542 116.316 35.9134C116.316 43.0219 120.306 47.2673 126.94 47.2673ZM126.94 43.1206C123.448 43.1206 121.453 40.5043 121.453 35.9134C121.453 31.3718 123.448 28.7061 126.94 28.7061C130.382 28.7061 132.427 31.3718 132.427 35.9134C132.377 40.5043 130.382 43.1206 126.94 43.1206ZM140.507 46.823H145.495V34.1362C145.495 30.9275 147.39 28.9035 150.333 28.9035C153.376 28.9035 154.772 30.5819 154.772 33.8894V46.823H159.76V32.7046C159.76 27.472 157.067 24.5594 152.179 24.5594C148.887 24.5594 146.692 26.0404 145.644 28.5086H145.295V25.0037H140.457C140.507 25.0037 140.507 46.823 140.507 46.823Z" fill="#353535"/>
<path fill-rule="evenodd" clip-rule="evenodd" d="M-5.62957 16.2012C-4.17783 17.3724 -3.65274 17.2799 -0.934608 17.095L24.6714 15.554C25.2274 15.554 24.7641 14.9993 24.5788 14.9376L20.3163 11.8865C19.5132 11.2701 18.4012 10.5304 16.3317 10.7153L-8.44036 12.5337C-9.33611 12.6261 -9.52144 13.0884 -9.15078 13.4274L-5.62957 16.2012ZM-4.08517 22.1495V49.0244C-4.08517 50.4729 -3.37475 50.9968 -1.73769 50.9044L26.4012 49.2709C28.0382 49.1785 28.2236 48.1922 28.2236 47.0211V20.3311C28.2236 19.1599 27.7602 18.5127 26.7718 18.6052L-2.63344 20.3311C-3.71452 20.4236 -4.08517 20.9783 -4.08517 22.1495ZM23.683 23.598C23.8684 24.3993 23.683 25.2314 22.88 25.3239L21.5209 25.6013V45.4493C20.3471 46.0657 19.2661 46.4355 18.3394 46.4355C16.8877 46.4355 16.517 45.9732 15.436 44.6171L6.57115 30.7174V44.1548L9.38195 44.7712C9.38195 44.7712 9.38195 46.4047 7.12713 46.4047L0.887779 46.7745C0.702453 46.4047 0.887779 45.5109 1.50554 45.326L3.14259 44.8637V27.1115L0.887779 26.9265C0.702453 26.1252 1.16577 24.9541 2.43217 24.8616L9.13484 24.3993L18.3703 38.4532V26.0328L16.0228 25.7554C15.8375 24.7691 16.5788 24.0295 17.4746 23.937L23.683 23.598ZM-10.5099 10.0681L15.2815 8.18807C18.4321 7.91069 19.2661 8.09561 21.2429 9.54415L29.4591 15.3075C30.8181 16.2937 31.2814 16.5711 31.2814 17.6498V49.3017C31.2814 51.2742 30.571 52.4454 28.0382 52.6303L-1.89213 54.4487C-3.80718 54.5411 -4.70293 54.2637 -5.69134 53.0001L-11.7763 45.1411C-12.8573 43.6925 -13.3206 42.6138 -13.3206 41.3502V13.2117C-13.3206 11.5783 -12.5793 10.253 -10.5099 10.0681Z" fill="#353535"/>
</g>
<defs>
<clipPath id="clip0_854_1726">
<rect width="173.694" height="64.6303" fill="white"/>
</clipPath>
</defs>
</svg>
