<svg width="28" height="28" viewBox="0 0 28 28" fill="none" xmlns="http://www.w3.org/2000/svg">
<g filter="url(#filter0_dd_984_3768)">
<path fill-rule="evenodd" clip-rule="evenodd" d="M15.8226 16.8833C14.8996 17.5841 13.7484 18 12.5 18C9.46243 18 7 15.5376 7 12.5C7 9.46243 9.46243 7 12.5 7C15.5376 7 18 9.46243 18 12.5C18 13.7484 17.5841 14.8996 16.8833 15.8226L20.7803 19.7197C21.0732 20.0126 21.0732 20.4874 20.7803 20.7803C20.4874 21.0732 20.0126 21.0732 19.7197 20.7803L15.8226 16.8833ZM16.5 12.5C16.5 14.7091 14.7091 16.5 12.5 16.5C10.2909 16.5 8.5 14.7091 8.5 12.5C8.5 10.2909 10.2909 8.5 12.5 8.5C14.7091 8.5 16.5 10.2909 16.5 12.5Z" fill="#939496"/>
</g>
<defs>
<filter id="filter0_dd_984_3768" x="-4" y="-2" width="36" height="36" filterUnits="userSpaceOnUse" color-interpolation-filters="sRGB">
<feFlood flood-opacity="0" result="BackgroundImageFix"/>
<feColorMatrix in="SourceAlpha" type="matrix" values="0 0 0 0 0 0 0 0 0 0 0 0 0 0 0 0 0 0 127 0" result="hardAlpha"/>
<feOffset dy="2"/>
<feGaussianBlur stdDeviation="2"/>
<feComposite in2="hardAlpha" operator="out"/>
<feColorMatrix type="matrix" values="0 0 0 0 0 0 0 0 0 0 0 0 0 0 0 0 0 0 0.04 0"/>
<feBlend mode="normal" in2="BackgroundImageFix" result="effect1_dropShadow_984_3768"/>
<feColorMatrix in="SourceAlpha" type="matrix" values="0 0 0 0 0 0 0 0 0 0 0 0 0 0 0 0 0 0 127 0" result="hardAlpha"/>
<feOffset dy="1"/>
<feGaussianBlur stdDeviation="1"/>
<feComposite in2="hardAlpha" operator="out"/>
<feColorMatrix type="matrix" values="0 0 0 0 0 0 0 0 0 0 0 0 0 0 0 0 0 0 0.04 0"/>
<feBlend mode="normal" in2="effect1_dropShadow_984_3768" result="effect2_dropShadow_984_3768"/>
<feBlend mode="normal" in="SourceGraphic" in2="effect2_dropShadow_984_3768" result="shape"/>
</filter>
</defs>
</svg>
