<svg width="18" height="18" viewBox="0 0 18 18" fill="none" xmlns="http://www.w3.org/2000/svg"><path fill-rule="evenodd" clip-rule="evenodd" d="M3.173 1.23c.228-.024.457.023.657.134l.003.001 11.873 6.65.001.001a1.125 1.125 0 0 1 0 1.967l-.001.001L3.83 16.636a1.126 1.126 0 0 1-1.604-1.363v-.001L4.463 9v-.002l-2.236-6.27a1.126 1.126 0 0 1 .946-1.499m12.26 7.278-.274.49-11.873-6.65v.001L5.52 8.612c.097.25.097.526 0 .776L3.286 15.65 15.159 9h.001z" fill="#fff"/><path fill-rule="evenodd" clip-rule="evenodd" d="M4.5 9c0-.31.252-.562.563-.562h4.5a.563.563 0 0 1 0 1.124h-4.5A.563.563 0 0 1 4.5 9" fill="#fff"/></svg>