<svg width="51" height="51" viewBox="0 0 51 51" fill="none" xmlns="http://www.w3.org/2000/svg">
<g filter="url(#filter0_d_891_6307)">
<rect width="27.6316" height="27.6316" rx="13.8158" transform="matrix(1 0 0 -1 11.6846 33.6316)" fill="white"/>
</g>
<path d="M22.3044 21.2765C22.3044 21.9189 21.7856 22.4381 21.1437 22.4381C20.5018 22.4381 19.9831 21.9189 19.9831 21.2765C19.9831 20.6341 20.5018 20.1149 21.1437 20.1149H22.3044V21.2765ZM22.8847 21.2765C22.8847 20.6341 23.4035 20.1149 24.0454 20.1149C24.6872 20.1149 25.206 20.6341 25.206 21.2765V24.1805C25.206 24.8229 24.6872 25.3421 24.0454 25.3421C23.4035 25.3421 22.8847 24.8229 22.8847 24.1805V21.2765Z" fill="#7840D4"/>
<path d="M24.0455 16.6126C23.4036 16.6126 22.8848 16.0934 22.8848 15.451C22.8848 14.8086 23.4036 14.2894 24.0455 14.2894C24.6873 14.2894 25.2061 14.8086 25.2061 15.451V16.6126H24.0455ZM24.0455 17.2022C24.6873 17.2022 25.2061 17.7214 25.2061 18.3638C25.2061 19.0062 24.6873 19.5254 24.0455 19.5254H21.135C20.4931 19.5254 19.9744 19.0062 19.9744 18.3638C19.9744 17.7214 20.4931 17.2022 21.135 17.2022H24.0455Z" fill="#7840D4"/>
<path d="M28.6968 18.3638C28.6968 17.7214 29.2155 17.2022 29.8574 17.2022C30.4993 17.2022 31.0181 17.7214 31.0181 18.3638C31.0181 19.0062 30.4993 19.5254 29.8574 19.5254H28.6968V18.3638ZM28.1164 18.3638C28.1164 19.0062 27.5977 19.5254 26.9558 19.5254C26.3139 19.5254 25.7951 19.0062 25.7951 18.3638V15.451C25.7951 14.8086 26.3139 14.2894 26.9558 14.2894C27.5977 14.2894 28.1164 14.8086 28.1164 15.451V18.3638Z" fill="#7840D4"/>
<path d="M26.9558 23.0189C27.5977 23.0189 28.1164 23.5381 28.1164 24.1805C28.1164 24.8229 27.5977 25.3421 26.9558 25.3421C26.3139 25.3421 25.7951 24.8229 25.7951 24.1805V23.0189H26.9558ZM26.9558 22.4381C26.3139 22.4381 25.7951 21.9189 25.7951 21.2765C25.7951 20.6341 26.3139 20.1149 26.9558 20.1149H29.8662C30.5081 20.1149 31.0269 20.6341 31.0269 21.2765C31.0269 21.9189 30.5081 22.4381 29.8662 22.4381H26.9558Z" fill="#7840D4"/>
<defs>
<filter id="filter0_d_891_6307" x="0.521392" y="0.363147" width="49.9579" height="49.9579" filterUnits="userSpaceOnUse" color-interpolation-filters="sRGB">
<feFlood flood-opacity="0" result="BackgroundImageFix"/>
<feColorMatrix in="SourceAlpha" type="matrix" values="0 0 0 0 0 0 0 0 0 0 0 0 0 0 0 0 0 0 127 0" result="hardAlpha"/>
<feOffset dy="5.52633"/>
<feGaussianBlur stdDeviation="5.58159"/>
<feComposite in2="hardAlpha" operator="out"/>
<feColorMatrix type="matrix" values="0 0 0 0 0 0 0 0 0 0 0 0 0 0 0 0 0 0 0.12 0"/>
<feBlend mode="normal" in2="BackgroundImageFix" result="effect1_dropShadow_891_6307"/>
<feBlend mode="normal" in="SourceGraphic" in2="effect1_dropShadow_891_6307" result="shape"/>
</filter>
</defs>
</svg>
