<svg width="11" height="10" viewBox="0 0 11 10" fill="none" xmlns="http://www.w3.org/2000/svg">
<path fill-rule="evenodd" clip-rule="evenodd" d="M7.65659 3.73729C7.77233 3.85861 7.76781 4.05079 7.64649 4.16653L5.41878 6.29177C5.30141 6.40374 5.11674 6.40367 4.99946 6.29159L3.8875 5.22897C3.76628 5.11312 3.76192 4.92094 3.87776 4.79972C3.99361 4.67849 4.18579 4.67413 4.30701 4.78998L5.20939 5.65232L7.22735 3.72718C7.34867 3.61144 7.54085 3.61596 7.65659 3.73729Z" fill="#136624"/>
<path fill-rule="evenodd" clip-rule="evenodd" d="M5.76709 1.51804C3.92264 1.51804 2.42743 3.01325 2.42743 4.8577C2.42743 6.70214 3.92264 8.19736 5.76709 8.19736C7.61153 8.19736 9.10674 6.70214 9.10674 4.8577C9.10674 3.01325 7.61153 1.51804 5.76709 1.51804ZM1.82022 4.8577C1.82022 2.6779 3.58729 0.910828 5.76709 0.910828C7.94688 0.910828 9.71396 2.6779 9.71396 4.8577C9.71396 7.03749 7.94688 8.80457 5.76709 8.80457C3.58729 8.80457 1.82022 7.03749 1.82022 4.8577Z" fill="#136624"/>
</svg>
