<svg width="159" height="72" viewBox="0 0 159 72" fill="none" xmlns="http://www.w3.org/2000/svg">
<g clip-path="url(#clip0_854_1688)">
<path d="M10.1225 30.041C17.2485 27.5848 18.4615 21.1865 17.5518 15.3038C17.5518 15.0915 17.7337 14.9399 17.9156 15.0005C24.7385 18.3361 32.4103 25.6138 32.4103 36.5303C32.4103 44.8996 25.9211 52.2986 16.4904 52.2986C13.1253 52.4516 9.80504 51.4796 7.0537 49.536C4.30235 47.5924 2.27662 44.7879 1.29623 41.5651C0.315835 38.3423 0.436617 34.8848 1.63951 31.7383C2.84241 28.5918 5.05891 25.9355 7.93917 24.1886C8.12111 24.0673 8.3637 24.1886 8.3637 24.4009C8.45467 25.5228 8.75791 28.3429 10.0012 30.041H10.1225Z" fill="#353535"/>
<path d="M52.4853 45.6576L53.0008 45.0512L54.6079 50.1455L54.3957 50.3578C53.1827 51.4798 51.3633 52.0559 49.0284 52.0559H48.9374C46.8148 52.0559 45.147 51.4495 43.9947 50.3275C42.8424 49.1752 42.2359 47.4467 42.2359 45.2634V31.3752H38.1422V25.7654H42.2359V19.0032H48.5432V25.7654H53.5466V31.3752H48.5129V43.8989C48.5129 44.475 48.6645 46.3248 50.4233 46.3248C51.333 46.3248 52.182 45.9912 52.4853 45.6273V45.6576ZM55.8209 51.4798V25.7957H62.1282V51.4798H55.8209ZM58.9442 15.3037C59.6926 15.3037 60.4242 15.5253 61.0469 15.9405C61.6695 16.3556 62.1554 16.9459 62.4431 17.6367C62.7309 18.3276 62.8077 19.0881 62.6639 19.8226C62.5201 20.557 62.1621 21.2324 61.635 21.7637C61.1079 22.295 60.4354 22.6584 59.7021 22.808C58.9688 22.9577 58.2077 22.887 57.5145 22.6047C56.8214 22.3225 56.2274 21.8414 55.8072 21.222C55.3871 20.6027 55.1597 19.8728 55.1537 19.1245C55.1537 17.0625 56.8822 15.3037 58.9442 15.3037ZM79.0791 25.1589C84.5373 25.1589 87.5393 28.1306 87.5393 33.5585V51.4495H81.232V35.0747C81.1107 32.1636 79.7159 30.8294 76.7441 30.8294C74.0757 30.8294 71.9227 32.4669 70.831 33.8618V51.4495H64.5237V25.826H70.831V28.5551C72.6505 26.7964 75.5615 25.2195 79.0791 25.2195V25.1589ZM108.523 28.4642V16.3954H114.831V51.5101H108.523V48.8416C107.558 49.8596 106.397 50.6718 105.11 51.2294C103.823 51.787 102.436 52.0784 101.033 52.0863C94.1499 52.0863 89.5407 46.6886 89.5407 38.6529C89.5407 30.5868 94.1499 25.1892 101.033 25.1892C102.439 25.1956 103.829 25.4895 105.117 26.0526C106.405 26.6158 107.564 27.4365 108.523 28.4642ZM108.523 33.8921C107.82 32.9766 106.922 32.2293 105.894 31.7048C104.866 31.1802 103.734 30.8915 102.58 30.8597C98.6681 30.8597 96.0603 33.9831 96.0603 38.6529C96.0603 43.2924 98.6681 46.4157 102.58 46.4157C104.854 46.4157 107.341 45.2028 108.523 43.444V33.8921ZM129.568 25.1892C137.027 25.1892 142.213 30.9507 142.213 39.1381V40.8665H123.139C123.776 44.475 126.626 46.7796 130.508 46.7796C132.964 46.7796 135.663 45.7183 137.209 44.1718L137.634 43.8079L140.636 48.1139L140.333 48.3868C137.491 50.9061 133.787 52.2314 129.992 52.0863C122.108 52.0863 116.559 46.537 116.559 38.6226C116.498 36.8752 116.79 35.1335 117.419 33.5019C118.047 31.8703 118.999 30.3826 120.217 29.128C121.435 27.8734 122.893 26.8778 124.505 26.2009C126.117 25.5241 127.85 25.18 129.598 25.1892H129.568ZM123.109 36.1057H136.057C135.693 32.2546 132.509 30.4958 129.568 30.4958C125.141 30.4958 123.473 33.8314 123.109 36.136V36.1057ZM157.466 25.1892H157.92V31.5572L157.375 31.4662C156.92 31.3752 156.344 31.3146 155.767 31.3146C153.736 31.3146 150.916 32.7398 149.854 34.256V51.4495H143.547V25.7957H149.885V28.6461C151.977 26.4628 154.736 25.1892 157.466 25.1892Z" fill="#353535"/>
</g>
<defs>
<clipPath id="clip0_854_1688">
<rect width="158.36" height="71.7103" fill="white" transform="translate(0.639893)"/>
</clipPath>
</defs>
</svg>
