<svg width="174" height="72" viewBox="0 0 174 72" fill="none" xmlns="http://www.w3.org/2000/svg">
<g clip-path="url(#clip0_854_1686)">
<path d="M56.1969 31.9823C56.1969 28.9024 53.1169 25.6171 47.9837 25.6171C42.2344 25.6171 35.6638 29.929 34.6371 38.5529C33.6104 47.1769 38.9491 51.0782 44.493 51.0782C50.037 51.0782 52.7063 49.0249 55.5809 46.1502C53.1169 43.0702 49.8316 44.5076 49.2156 44.7129C48.5997 45.1236 47.573 45.5342 45.9303 45.5342C43.877 45.5342 41.6184 44.5076 41.6184 40.6063C55.1703 39.1689 56.1969 35.0623 56.1969 31.9823ZM49.6263 32.393C49.6263 33.4197 49.2156 35.0623 42.4397 35.8836C43.877 30.7503 46.5463 30.3397 47.7783 30.3397C49.0103 30.545 49.6263 31.3663 49.6263 32.393ZM26.8345 33.2143C26.8345 33.2143 23.9599 42.2489 23.7545 43.0702C23.7545 42.2489 21.4959 26.0277 21.4959 26.0277C16.5679 26.0277 13.8986 29.5184 12.6666 33.2143C12.6666 33.2143 9.17599 42.2489 8.97066 43.0702C8.76533 42.4542 8.35466 33.4197 8.35466 33.4197C7.944 28.9024 3.83737 26.0277 0.552063 26.0277L4.65869 50.6675C9.79198 50.6675 12.6666 47.1769 14.1039 43.4809C14.1039 43.4809 17.1839 35.473 17.3893 35.0623C17.3893 35.473 19.6479 50.6675 19.6479 50.6675C24.7812 50.6675 27.6558 47.3822 29.0932 43.8916L36.2798 26.0277C30.9411 26.0277 28.2718 29.5184 26.8345 33.2143ZM75.2928 25.4117C72.2128 25.4117 69.7488 27.0544 67.6955 29.7237L69.3381 14.9398C65.0262 14.9398 61.7409 18.6358 60.9195 23.9744L57.6342 50.4622C60.0982 50.4622 62.5622 49.8462 63.9995 47.9982C65.2315 49.6409 67.0795 50.8728 69.7488 50.8728C76.9354 50.8728 81.8634 42.6596 81.8634 34.857C82.0687 27.6704 78.5781 25.4117 75.2928 25.4117ZM74.4714 38.1423C73.6501 42.4542 71.3914 45.3289 68.9275 45.3289C66.6688 45.3289 65.6422 44.3022 65.6422 44.3022C66.0528 40.6063 66.4635 38.1423 67.2848 36.089C68.1061 34.0357 70.1595 30.9557 72.2128 30.9557C74.2661 31.161 75.2928 33.8303 74.4714 38.1423ZM99.9325 26.0277H95.0046V25.8224C95.4152 22.5371 96.0312 20.8944 98.7005 20.6891C100.343 20.4838 101.165 19.6624 101.37 18.6358C101.575 17.8145 101.986 15.1452 101.986 15.1452C91.9246 15.1452 88.8446 19.4571 88.0233 26.0277V26.2331H87.818C86.1753 26.2331 84.3273 28.081 84.122 30.3397L83.9167 31.161H87.202L84.3273 54.1581L83.506 58.2648C83.7113 58.2648 83.7113 58.2648 83.9167 58.2648C88.6393 58.0594 91.5139 54.3635 92.3353 49.0249L94.5939 30.9557H96.2366C97.6739 30.9557 99.5219 29.5184 99.9325 26.8491V26.0277ZM125.804 25.6171C120.055 25.6171 114.716 29.929 113.074 36.4996C111.431 43.0702 113.895 51.0782 122.314 51.0782C130.732 51.0782 135.66 42.8649 135.66 36.089C135.455 29.313 130.938 25.6171 125.804 25.6171ZM128.063 37.937C127.858 41.0169 126.42 45.5342 122.724 45.5342C119.028 45.5342 119.644 40.1956 119.85 37.7316C120.26 35.0623 121.698 31.161 124.983 31.161C128.063 31.161 128.474 34.6516 128.063 37.937ZM163.996 33.2143C163.996 33.2143 161.121 42.2489 160.916 43.0702C160.916 42.2489 158.657 26.0277 158.657 26.0277C153.729 26.0277 151.06 29.5184 149.828 33.2143C149.828 33.2143 146.337 42.2489 146.132 43.0702C146.132 42.4542 145.516 33.4197 145.516 33.4197C145.311 28.9024 140.999 26.2331 137.714 26.2331L141.82 50.8728C146.953 50.8728 149.828 47.3822 151.265 43.6862C151.265 43.6862 154.345 35.6783 154.551 35.2676C154.551 35.6783 156.809 50.8728 156.809 50.8728C161.943 50.8728 164.817 47.5875 166.255 44.0969L173.031 26.0277C167.897 26.0277 165.228 29.5184 163.996 33.2143ZM104.655 15.1452L100.549 48.8195L99.7272 52.9262C99.9325 52.9262 99.9325 52.9262 100.138 52.9262C104.655 52.9262 107.94 48.8195 108.351 43.8916L110.815 24.5904C111.431 18.8411 107.735 15.1452 104.655 15.1452Z" fill="#353535"/>
</g>
<defs>
<clipPath id="clip0_854_1686">
<rect width="173.3" height="71.7103" fill="white" transform="translate(0.552124)"/>
</clipPath>
</defs>
</svg>
